<?xml version="1.0" encoding="UTF-8" standalone="no"?>
<!-- Generator: Adobe Illustrator 16.2.0, SVG Export Plug-In . SVG Version: 6.00 Build 0)  -->

<svg
   xmlns:dc="http://purl.org/dc/elements/1.1/"
   xmlns:cc="http://creativecommons.org/ns#"
   xmlns:rdf="http://www.w3.org/1999/02/22-rdf-syntax-ns#"
   xmlns:svg="http://www.w3.org/2000/svg"
   xmlns="http://www.w3.org/2000/svg"
   xmlns:sodipodi="http://sodipodi.sourceforge.net/DTD/sodipodi-0.dtd"
   xmlns:inkscape="http://www.inkscape.org/namespaces/inkscape"
   version="1.1"
   id="Layer_1"
   x="0px"
   y="0px"
   width="252px"
   height="124px"
   viewBox="0 0 252 124"
   enable-background="new 0 0 252 124"
   xml:space="preserve"
   inkscape:version="0.48.4 r9939"
   sodipodi:docname="logo.svg"><metadata
   id="metadata3022"><rdf:RDF><cc:Work
       rdf:about=""><dc:format>image/svg+xml</dc:format><dc:type
         rdf:resource="http://purl.org/dc/dcmitype/StillImage" /></cc:Work></rdf:RDF></metadata><defs
   id="defs3020" /><sodipodi:namedview
   pagecolor="#ffffff"
   bordercolor="#666666"
   borderopacity="1"
   objecttolerance="10"
   gridtolerance="10"
   guidetolerance="10"
   inkscape:pageopacity="0"
   inkscape:pageshadow="2"
   inkscape:window-width="1600"
   inkscape:window-height="838"
   id="namedview3018"
   showgrid="false"
   inkscape:zoom="4"
   inkscape:cx="172.38642"
   inkscape:cy="68.686321"
   inkscape:window-x="-8"
   inkscape:window-y="-8"
   inkscape:window-maximized="1"
   inkscape:current-layer="Layer_1" />



<path
   style="fill:#808080"
   d=""
   id="path3013"
   inkscape:connector-curvature="0" /><path
   style="fill:#808080"
   d="m 19.214896,113.32652 c -0.530491,-0.93419 -0.937471,-6.001 -0.927061,-11.5417 0.01093,-5.81909 0.07521,-6.59136 0.808073,-9.70875 C 20.993837,84.0028 24.57129,77.45646 30.184755,71.784725 45.34275,56.469367 63.47952,53.418489 83.69718,62.783127 l 2.19073,1.014729 1.69805,-3.224981 c 8.94172,-16.982346 22.91392,-27.990451 41.53175,-32.721122 6.01838,-1.52923 10.70888,-2.036751 17.06506,-1.846471 2.91241,0.08719 6.41689,0.367695 7.78773,0.623352 9.8742,1.841511 19.07572,5.822191 27.90061,12.070116 l 2.75287,1.949003 15.0517,-9.843633 C 219.77717,17.657983 238.9787,6.514433 239.69211,6.514433 c 0.4224,0 -4.85142,7.0019 -9.58633,11.471186 -2.74931,2.595083 -10.57083,10.407949 -17.6867,16.750815 -7.11588,6.342867 -13.06047,13.571747 -14.7734,13.96109 l -1.33544,1.928607 0.99836,2.438237 c 2.22855,5.44265 4.57082,10.172563 6.51008,15.34641 1.31669,3.512869 2.90906,9.661112 3.43693,13.270192 0.55701,3.80837 0.46534,13.63473 -0.1615,17.31043 -0.65105,3.81769 -2.00778,9.1633 -3.06806,12.0883 l -0.84091,2.31986 -91.92238,0.074 c -50.5573,0.0407 -91.97884,-0.0255 -92.047864,-0.14702 l 0,0 z m 181.235624,-4.49 c 0,0 1.21179,-6.95765 1.68483,-10.13917 1.05958,-7.1264 1.33309,-15.86848 -0.45721,-22.9155 -2.01392,-7.927212 -4.21023,-13.608894 -9.33069,-22.183593 l -1.92773,-3.22817 19.34303,-17.159813 c 18.92219,-16.786469 20.54255,-18.366707 18.75494,-18.290508 -0.32344,0.01379 -22.20016,14.882368 -49.53159,32.124624 -43.1204,27.202862 -50.49953,30.54407 -50.86706,30.18011 -0.23296,-0.2307 -0.36528,-0.46722 -0.29405,-0.52559 0.60955,-0.49951 16.83754,-10.877764 27.7697,-17.759517 17.23346,-10.8484 25.18591,-15.92515 25.67545,-16.390913 0.316,-0.300658 -0.0598,-0.69776 -2.05831,-2.114956 -15.02877,-10.657433 -30.51842,-13.494032 -49.58185,-8.138876 -18.00405,5.057565 -26.90642,14.55813 -38.95582,32.196272 -1.24184,1.817829 -2.56762,5.872194 -3.35518,4.671605 -0.0376,0.04941 -1.631943,-0.419098 -3.46791,-1.50868 C 77.391679,63.820424 70.134166,61.369012 63.18292,61.164884 53.000372,60.865866 46.03171,63.461945 38.388842,70.416619 30.247584,77.824806 24.78944,84.64938 23.249634,94.72775 c -0.651204,4.26227 -1.028034,9.8799 -1.17474,13.81977 l 0.423345,0.80862 89.642821,-1 c 54.96404,-0.61314 88.51292,0.33899 88.30946,0.48038 z"
   id="path3011"
   inkscape:connector-curvature="0"
   sodipodi:nodetypes="csssscssssscssssscssssscsccccssscsssssssssscssssscsc" /></svg>